<svg height="416pt" viewBox="-64 0 416 416" width="416pt" xmlns="http://www.w3.org/2000/svg" xmlns:xlink="http://www.w3.org/1999/xlink"><linearGradient id="a" gradientUnits="userSpaceOnUse" x1="-5.65599" x2="341.65601" y1="405.656" y2="58.344"><stop offset="0" stop-color="#41dfd0"/><stop offset="1" stop-color="#ee83ef"/></linearGradient><path d="m2.304688 98.398438c-.628907.660156-1.136719 1.421874-1.511719 2.25-.101563.246093-.191407.496093-.265625.75-.238282.683593-.382813 1.398437-.4296878 2.121093 0 .175781-.0976562.320313-.0976562.488281v144.839844c0 2.050782.785156 4.023438 2.199219 5.511719l44.800781 47.144531c1.511719 1.585938 3.605469 2.484375 5.796875 2.484375s4.285156-.898437 5.796875-2.484375l55.007812-57.886718 54.972657 57.886718c1.511719 1.59375 3.609375 2.496094 5.804687 2.496094 2.195313 0 4.292969-.902344 5.804688-2.496094l55.015625-57.886718 39.023437 41.054687c2.253906 2.351563 5.707032 3.101563 8.730469 1.898437 3.027344-1.199218 5.019531-4.113281 5.046875-7.371093v-271.199219c0-4.417969-3.582031-8-8-8h-176c-.160156 0-.296875.078125-.449219.0898438-.746093.0429682-1.484375.1914062-2.191406.4375002-.238281.089844-.480469.152344-.710937.257812-.835938.371094-1.597657.890625-2.257813 1.527344l-.054687.039062-96 96zm93.695312-71.085938v68.6875h-68.6875zm-80 84.6875h88c4.417969 0 8-3.582031 8-8v-88h160v243.136719l-31.023438-32.640625c-3.207031-3.191406-8.386718-3.191406-11.59375 0l-54.984374 57.886718-54.972657-57.886718c-1.511719-1.589844-3.609375-2.488282-5.800781-2.488282-2.195312 0-4.289062.898438-5.800781 2.488282l-55.023438 57.886718-36.800781-38.726562zm-16 296c0 4.417969 3.582031 8 8 8h272c4.417969 0 8-3.582031 8-8v-72.800781c0-2.050781-.785156-4.023438-2.199219-5.511719l-44.800781-47.199219c-3.207031-3.191406-8.386719-3.191406-11.59375 0l-55.007812 57.894531-54.972657-57.886718c-1.511719-1.589844-3.609375-2.488282-5.800781-2.488282-2.195312 0-4.289062.898438-5.800781 2.488282l-55.023438 57.886718-38.984375-41.039062c-2.253906-2.382812-5.730468-3.152344-8.777344-1.9375-3.046874 1.210938-5.04296825 4.164062-5.039062 7.441406zm16-83.113281 30.984375 32.617187c1.507813 1.585938 3.605469 2.484375 5.796875 2.484375s4.285156-.898437 5.792969-2.484375l55.027343-57.886718 54.972657 57.886718c1.511719 1.59375 3.609375 2.496094 5.804687 2.496094 2.195313 0 4.292969-.902344 5.804688-2.496094l55.015625-57.886718 36.800781 38.78125v61.601562h-256zm216-164.886719h-176v-16h176zm0 48h-176v-16h176zm0 0" fill="url(#a)"/></svg>